STARTFONT 2.1
COMMENT $XConsortium: luRS12.bdf,v 1.7 94/04/02 16:23:48 gildea Exp $
COMMENT  (c) Copyright Bigelow & Holmes 1986, 1985. Lucida is a registered
COMMENT  trademark of Bigelow & Holmes. See LEGAL NOTICE file for terms 
COMMENT  of the license. 
COMMENT  
COMMENT  Translation to ISO8859-2 by Cub Soft;  Petr.Kolar@vslib.cz
COMMENT  
FONT -B&H-Lucida-Medium-R-Normal-Sans-17-120-100-100-P-96-ISO8859-2
SIZE 12 100 100
FONTBOUNDINGBOX 29 19 -11 -3
STARTPROPERTIES 20
COMMENT Begin LogicalFontDescription
FONTNAME_REGISTRY ""
FOUNDRY "B&H"
FAMILY_NAME "Lucida"
WEIGHT_NAME "Medium"
SLANT "R"
SETWIDTH_NAME "Normal"
ADD_STYLE_NAME "Sans"
PIXEL_SIZE 17
POINT_SIZE 120
RESOLUTION_X 100
RESOLUTION_Y 100
SPACING "P"
AVERAGE_WIDTH 96
CHARSET_REGISTRY "ISO8859"
CHARSET_ENCODING "2"
COMMENT END LogicalFontDescription
FONT_ASCENT 15
FONT_DESCENT 4
DEFAULT_CHAR 0
COPYRIGHT "Copyright Bigelow & Holmes 1986, 1985., Copyright 1996 Cub Soft"
FACE_NAME "Lucida Sans"
ENDPROPERTIES
CHARS 191
STARTCHAR space
ENCODING 32
SWIDTH 316 0
DWIDTH 5 0
BBX 1 1 0 0
BITMAP
00
ENDCHAR
STARTCHAR exclam
ENCODING 33
SWIDTH 205 0
DWIDTH 5 0
BBX 2 12 2 0
BITMAP
c0
c0
c0
c0
c0
c0
c0
c0
c0
00
c0
c0
ENDCHAR
STARTCHAR quotedbl
ENCODING 34
SWIDTH 373 0
DWIDTH 6 0
BBX 4 4 1 8
BITMAP
f0
f0
f0
f0
ENDCHAR
STARTCHAR numbersign
ENCODING 35
SWIDTH 633 0
DWIDTH 11 0
BBX 11 12 0 0
BITMAP
0cc0
0d80
0d80
7fe0
7fe0
1b00
1b00
ffc0
ffc0
3600
3600
6600
ENDCHAR
STARTCHAR dollar
ENCODING 36
SWIDTH 633 0
DWIDTH 11 0
BBX 6 14 2 -1
BITMAP
30
7c
f4
f0
f0
f0
70
38
3c
3c
3c
fc
f8
30
ENDCHAR
STARTCHAR percent
ENCODING 37
SWIDTH 669 0
DWIDTH 11 0
BBX 12 12 2 0
BITMAP
3870
7cc0
6dc0
7d80
3b00
07c0
0fe0
0f60
1b60
3b60
33e0
e1c0
ENDCHAR
STARTCHAR ampersand
ENCODING 38
SWIDTH 697 0
DWIDTH 12 0
BBX 9 12 1 0
BITMAP
1c00
3e00
3600
3600
3c00
7800
fd80
cd80
cf00
e700
7d00
3980
ENDCHAR
STARTCHAR apostrophe
ENCODING 39
SWIDTH 229 0
DWIDTH 4 0
BBX 3 4 0 8
BITMAP
e0
e0
60
c0
ENDCHAR
STARTCHAR parenleft
ENCODING 40
SWIDTH 325 0
DWIDTH 6 0
BBX 4 15 1 -3
BITMAP
10
30
20
60
40
c0
c0
c0
c0
c0
c0
60
60
30
10
ENDCHAR
STARTCHAR parenright
ENCODING 41
SWIDTH 325 0
DWIDTH 6 0
BBX 4 15 1 -3
BITMAP
80
c0
40
60
20
30
30
30
30
30
30
60
60
c0
80
ENDCHAR
STARTCHAR asterisk
ENCODING 42
SWIDTH 482 0
DWIDTH 8 0
BBX 6 6 1 6
BITMAP
30
10
fc
28
78
48
ENDCHAR
STARTCHAR plus
ENCODING 43
SWIDTH 633 0
DWIDTH 11 0
BBX 10 10 0 0
BITMAP
0c00
0c00
0c00
0c00
ffc0
ffc0
0c00
0c00
0c00
0c00
ENDCHAR
STARTCHAR comma
ENCODING 44
SWIDTH 316 0
DWIDTH 5 0
BBX 3 5 1 -3
BITMAP
e0
e0
60
60
c0
ENDCHAR
STARTCHAR minus
ENCODING 45
SWIDTH 633 0
DWIDTH 11 0
BBX 10 2 0 4
BITMAP
ffc0
ffc0
ENDCHAR
STARTCHAR period
ENCODING 46
SWIDTH 316 0
DWIDTH 5 0
BBX 2 2 2 0
BITMAP
c0
c0
ENDCHAR
STARTCHAR slash
ENCODING 47
SWIDTH 494 0
DWIDTH 8 0
BBX 8 15 0 -3
BITMAP
03
03
06
06
0c
0c
1c
18
38
30
30
60
60
c0
c0
ENDCHAR
STARTCHAR zero
ENCODING 48
SWIDTH 633 0
DWIDTH 11 0
BBX 9 12 1 0
BITMAP
3e00
7f00
6300
c180
c180
c180
c180
c180
c180
6300
7f00
3e00
ENDCHAR
STARTCHAR one
ENCODING 49
SWIDTH 633 0
DWIDTH 11 0
BBX 4 12 2 0
BITMAP
f0
f0
30
30
30
30
30
30
30
30
30
30
ENDCHAR
STARTCHAR two
ENCODING 50
SWIDTH 633 0
DWIDTH 11 0
BBX 8 12 1 0
BITMAP
7c
ff
87
03
03
07
1e
38
70
60
ff
ff
ENDCHAR
STARTCHAR three
ENCODING 51
SWIDTH 633 0
DWIDTH 11 0
BBX 7 12 2 0
BITMAP
7c
fe
8e
06
04
78
7c
06
06
8e
fc
f8
ENDCHAR
STARTCHAR four
ENCODING 52
SWIDTH 633 0
DWIDTH 11 0
BBX 10 12 0 0
BITMAP
0700
0f00
0f00
1b00
3b00
7300
e300
ffc0
ffc0
0300
0300
0300
ENDCHAR
STARTCHAR five
ENCODING 53
SWIDTH 633 0
DWIDTH 11 0
BBX 6 12 2 0
BITMAP
fc
fc
c0
c0
f0
fc
1c
0c
0c
1c
f8
f0
ENDCHAR
STARTCHAR six
ENCODING 54
SWIDTH 633 0
DWIDTH 11 0
BBX 8 12 1 0
BITMAP
1e
7e
62
e0
dc
fe
e7
c3
c3
67
7e
3c
ENDCHAR
STARTCHAR seven
ENCODING 55
SWIDTH 633 0
DWIDTH 11 0
BBX 8 12 2 0
BITMAP
ff
ff
07
06
0e
1c
18
38
30
70
60
60
ENDCHAR
STARTCHAR eight
ENCODING 56
SWIDTH 633 0
DWIDTH 11 0
BBX 8 12 2 0
BITMAP
3e
ff
c3
c3
66
3c
7e
c7
c3
e7
fe
3c
ENDCHAR
STARTCHAR nine
ENCODING 57
SWIDTH 633 0
DWIDTH 11 0
BBX 8 12 1 0
BITMAP
3c
7e
e6
c3
c3
e7
7f
3b
03
46
7c
78
ENDCHAR
STARTCHAR colon
ENCODING 58
SWIDTH 316 0
DWIDTH 5 0
BBX 2 9 2 0
BITMAP
c0
c0
00
00
00
00
00
c0
c0
ENDCHAR
STARTCHAR semicolon
ENCODING 59
SWIDTH 316 0
DWIDTH 5 0
BBX 2 12 2 -3
BITMAP
c0
c0
00
00
00
00
00
c0
c0
c0
c0
80
ENDCHAR
STARTCHAR less
ENCODING 60
SWIDTH 633 0
DWIDTH 11 0
BBX 11 10 1 0
BITMAP
0060
01e0
07c0
1f00
fc00
7c00
1f00
07c0
01e0
0060
ENDCHAR
STARTCHAR equal
ENCODING 61
SWIDTH 633 0
DWIDTH 11 0
BBX 10 5 0 2
BITMAP
ffc0
ffc0
0000
ffc0
ffc0
ENDCHAR
STARTCHAR greater
ENCODING 62
SWIDTH 633 0
DWIDTH 11 0
BBX 11 10 0 0
BITMAP
c000
f000
7c00
1f00
07c0
07e0
1f00
7c00
f000
c000
ENDCHAR
STARTCHAR question
ENCODING 63
SWIDTH 422 0
DWIDTH 7 0
BBX 7 12 0 0
BITMAP
78
fe
8e
06
0e
1c
38
30
30
00
30
30
ENDCHAR
STARTCHAR at
ENCODING 64
SWIDTH 858 0
DWIDTH 15 0
BBX 14 12 2 0
BITMAP
07e0
1ff8
3c38
73cc
67cc
cc8c
cdec
ce78
ec70
7040
3fc0
0f80
ENDCHAR
STARTCHAR A
ENCODING 65
SWIDTH 690 0
DWIDTH 12 0
BBX 11 12 0 0
BITMAP
0e00
0e00
1e00
1b00
1b00
3380
3180
7f80
7fc0
60c0
c0e0
c060
ENDCHAR
STARTCHAR B
ENCODING 66
SWIDTH 575 0
DWIDTH 10 0
BBX 7 12 2 0
BITMAP
fc
fe
c6
c6
cc
f8
fc
ce
c6
c6
fe
fc
ENDCHAR
STARTCHAR C
ENCODING 67
SWIDTH 692 0
DWIDTH 12 0
BBX 10 12 1 0
BITMAP
1f80
3fc0
7040
e000
c000
c000
c000
c000
e000
7040
3fc0
1f80
ENDCHAR
STARTCHAR D
ENCODING 68
SWIDTH 749 0
DWIDTH 13 0
BBX 10 12 2 0
BITMAP
fe00
ff00
c380
c1c0
c0c0
c0c0
c0c0
c0c0
c0c0
c180
ff00
fe00
ENDCHAR
STARTCHAR E
ENCODING 69
SWIDTH 542 0
DWIDTH 9 0
BBX 7 12 2 0
BITMAP
fe
fe
c0
c0
c0
fc
fc
c0
c0
c0
fe
fe
ENDCHAR
STARTCHAR F
ENCODING 70
SWIDTH 536 0
DWIDTH 9 0
BBX 7 12 2 0
BITMAP
fe
fe
c0
c0
c0
fc
fc
c0
c0
c0
c0
c0
ENDCHAR
STARTCHAR G
ENCODING 71
SWIDTH 723 0
DWIDTH 12 0
BBX 10 12 1 0
BITMAP
1f80
3fc0
7040
e000
c000
c000
c0c0
c0c0
e0c0
70c0
3fc0
1f80
ENDCHAR
STARTCHAR H
ENCODING 72
SWIDTH 735 0
DWIDTH 12 0
BBX 9 12 2 0
BITMAP
c180
c180
c180
c180
c180
ff80
ff80
c180
c180
c180
c180
c180
ENDCHAR
STARTCHAR I
ENCODING 73
SWIDTH 288 0
DWIDTH 5 0
BBX 2 12 1 0
BITMAP
c0
c0
c0
c0
c0
c0
c0
c0
c0
c0
c0
c0
ENDCHAR
STARTCHAR J
ENCODING 74
SWIDTH 311 0
DWIDTH 5 0
BBX 6 15 -1 -3
BITMAP
0c
0c
0c
0c
0c
0c
0c
0c
0c
0c
0c
0c
0c
f8
f0
ENDCHAR
STARTCHAR K
ENCODING 75
SWIDTH 653 0
DWIDTH 11 0
BBX 9 12 2 0
BITMAP
c380
c600
ce00
dc00
d800
f800
f800
dc00
cc00
c600
c700
c380
ENDCHAR
STARTCHAR L
ENCODING 76
SWIDTH 533 0
DWIDTH 9 0
BBX 8 12 1 0
BITMAP
c0
c0
c0
c0
c0
c0
c0
c0
c0
c0
ff
ff
ENDCHAR
STARTCHAR M
ENCODING 77
SWIDTH 861 0
DWIDTH 15 0
BBX 11 12 2 0
BITMAP
e0e0
e0e0
f1e0
f1e0
f1e0
db60
db60
db60
cf60
ce60
ce60
c060
ENDCHAR
STARTCHAR N
ENCODING 78
SWIDTH 741 0
DWIDTH 13 0
BBX 9 12 2 0
BITMAP
c180
e180
f180
f180
f980
d980
cd80
cf80
c780
c780
c380
c180
ENDCHAR
STARTCHAR O
ENCODING 79
SWIDTH 777 0
DWIDTH 13 0
BBX 11 12 1 0
BITMAP
1f00
3f80
71c0
e0e0
c060
c060
c060
c060
e0e0
71c0
3f80
1f00
ENDCHAR
STARTCHAR P
ENCODING 80
SWIDTH 553 0
DWIDTH 9 0
BBX 8 12 1 0
BITMAP
fe
ff
c3
c3
c3
c7
fe
f8
c0
c0
c0
c0
ENDCHAR
STARTCHAR Q
ENCODING 81
SWIDTH 777 0
DWIDTH 13 0
BBX 12 15 1 -3
BITMAP
1f00
3f80
71c0
e0e0
c060
c060
c060
c060
e0e0
71c0
3f80
1f00
01c0
00f0
0020
ENDCHAR
STARTCHAR R
ENCODING 82
SWIDTH 633 0
DWIDTH 11 0
BBX 9 12 2 0
BITMAP
fc00
fe00
c600
c600
c600
cc00
f800
f800
cc00
c600
c700
c380
ENDCHAR
STARTCHAR S
ENCODING 83
SWIDTH 539 0
DWIDTH 9 0
BBX 7 12 1 0
BITMAP
7c
fc
c4
c0
e0
78
1c
0e
06
8e
fe
78
ENDCHAR
STARTCHAR T
ENCODING 84
SWIDTH 633 0
DWIDTH 11 0
BBX 10 12 0 0
BITMAP
ffc0
ffc0
0c00
0c00
0c00
0c00
0c00
0c00
0c00
0c00
0c00
0c00
ENDCHAR
STARTCHAR U
ENCODING 85
SWIDTH 693 0
DWIDTH 12 0
BBX 9 12 1 0
BITMAP
c180
c180
c180
c180
c180
c180
c180
c180
c180
e380
7f00
3e00
ENDCHAR
STARTCHAR V
ENCODING 86
SWIDTH 654 0
DWIDTH 11 0
BBX 11 12 0 0
BITMAP
c060
e060
60c0
60c0
31c0
3180
3980
1b00
1b00
0f00
0e00
0e00
ENDCHAR
STARTCHAR W
ENCODING 87
SWIDTH 855 0
DWIDTH 15 0
BBX 15 12 0 0
BITMAP
c386
c386
638e
678c
66cc
66cc
36d8
3ed8
3c78
3c70
1c70
1c70
ENDCHAR
STARTCHAR X
ENCODING 88
SWIDTH 626 0
DWIDTH 11 0
BBX 10 12 0 0
BITMAP
e0c0
6180
3380
3f00
1e00
0e00
1e00
1e00
3300
7380
6180
c1c0
ENDCHAR
STARTCHAR Y
ENCODING 89
SWIDTH 623 0
DWIDTH 11 0
BBX 10 12 0 0
BITMAP
c0c0
6180
7180
3300
3f00
1e00
0e00
0c00
0c00
0c00
0c00
0c00
ENDCHAR
STARTCHAR Z
ENCODING 90
SWIDTH 605 0
DWIDTH 10 0
BBX 9 12 1 0
BITMAP
ff80
ff80
0380
0700
0e00
0c00
1800
3800
7000
e000
ff80
ff80
ENDCHAR
STARTCHAR bracketleft
ENCODING 91
SWIDTH 325 0
DWIDTH 6 0
BBX 4 15 1 -3
BITMAP
f0
f0
c0
c0
c0
c0
c0
c0
c0
c0
c0
c0
c0
f0
f0
ENDCHAR
STARTCHAR backslash
ENCODING 92
SWIDTH 494 0
DWIDTH 8 0
BBX 8 15 0 -3
BITMAP
c0
c0
60
60
30
30
38
18
1c
0c
0c
06
06
03
03
ENDCHAR
STARTCHAR bracketright
ENCODING 93
SWIDTH 325 0
DWIDTH 6 0
BBX 4 15 0 -3
BITMAP
f0
f0
30
30
30
30
30
30
30
30
30
30
30
f0
f0
ENDCHAR
STARTCHAR asciicircum
ENCODING 94
SWIDTH 633 0
DWIDTH 11 0
BBX 10 11 0 2
BITMAP
0400
0c00
0c00
1e00
1e00
3f00
3300
7380
6180
e1c0
c0c0
ENDCHAR
STARTCHAR underscore
ENCODING 95
SWIDTH 500 0
DWIDTH 9 0
BBX 7 2 1 -1
BITMAP
fe
fe
ENDCHAR
STARTCHAR grave
ENCODING 96
SWIDTH 614 0
DWIDTH 10 0
BBX 4 2 3 10
BITMAP
e0
30
ENDCHAR
STARTCHAR a
ENCODING 97
SWIDTH 552 0
DWIDTH 9 0
BBX 8 9 1 0
BITMAP
3c
7e
46
3e
7e
c6
c6
ff
73
ENDCHAR
STARTCHAR b
ENCODING 98
SWIDTH 630 0
DWIDTH 11 0
BBX 8 12 2 0
BITMAP
c0
c0
c0
dc
fe
e7
c3
c3
c3
c7
fe
dc
ENDCHAR
STARTCHAR c
ENCODING 99
SWIDTH 518 0
DWIDTH 9 0
BBX 7 9 1 0
BITMAP
3e
7e
e0
c0
c0
c0
e2
7e
3c
ENDCHAR
STARTCHAR d
ENCODING 100
SWIDTH 630 0
DWIDTH 11 0
BBX 8 12 1 0
BITMAP
03
03
03
3b
7f
e3
c3
c3
c3
e7
7f
3b
ENDCHAR
STARTCHAR e
ENCODING 101
SWIDTH 557 0
DWIDTH 9 0
BBX 8 9 1 0
BITMAP
3c
7e
c3
ff
ff
c0
e1
7f
3e
ENDCHAR
STARTCHAR f
ENCODING 102
SWIDTH 367 0
DWIDTH 6 0
BBX 6 13 1 0
BITMAP
3c
7c
60
60
f8
f8
60
60
60
60
60
60
60
ENDCHAR
STARTCHAR g
ENCODING 103
SWIDTH 623 0
DWIDTH 11 0
BBX 8 12 1 -3
BITMAP
3b
7f
e3
c3
c3
c3
e7
7f
3b
43
7e
7c
ENDCHAR
STARTCHAR h
ENCODING 104
SWIDTH 620 0
DWIDTH 11 0
BBX 7 12 2 0
BITMAP
c0
c0
c0
dc
de
e6
c6
c6
c6
c6
c6
c6
ENDCHAR
STARTCHAR i
ENCODING 105
SWIDTH 289 0
DWIDTH 5 0
BBX 2 12 1 0
BITMAP
c0
c0
00
c0
c0
c0
c0
c0
c0
c0
c0
c0
ENDCHAR
STARTCHAR j
ENCODING 106
SWIDTH 304 0
DWIDTH 5 0
BBX 5 15 0 -3
BITMAP
18
18
00
18
18
18
18
18
18
18
18
18
18
f8
f0
ENDCHAR
STARTCHAR k
ENCODING 107
SWIDTH 585 0
DWIDTH 10 0
BBX 8 12 2 0
BITMAP
c0
c0
c0
c7
cc
dc
f8
f0
d8
cc
ce
c7
ENDCHAR
STARTCHAR l
ENCODING 108
SWIDTH 289 0
DWIDTH 5 0
BBX 2 12 1 0
BITMAP
c0
c0
c0
c0
c0
c0
c0
c0
c0
c0
c0
c0
ENDCHAR
STARTCHAR m
ENCODING 109
SWIDTH 934 0
DWIDTH 16 0
BBX 12 9 2 0
BITMAP
dce0
def0
e730
c630
c630
c630
c630
c630
c630
ENDCHAR
STARTCHAR n
ENCODING 110
SWIDTH 620 0
DWIDTH 11 0
BBX 7 9 2 0
BITMAP
dc
de
e6
c6
c6
c6
c6
c6
c6
ENDCHAR
STARTCHAR o
ENCODING 111
SWIDTH 614 0
DWIDTH 10 0
BBX 9 9 1 0
BITMAP
3e00
7f00
e380
c180
c180
c180
e380
7f00
3e00
ENDCHAR
STARTCHAR p
ENCODING 112
SWIDTH 630 0
DWIDTH 11 0
BBX 8 12 2 -3
BITMAP
dc
fe
e7
c3
c3
c3
c7
fe
dc
c0
c0
c0
ENDCHAR
STARTCHAR q
ENCODING 113
SWIDTH 630 0
DWIDTH 11 0
BBX 8 12 1 -3
BITMAP
3b
7f
e3
c3
c3
c3
e7
7f
3b
03
03
03
ENDCHAR
STARTCHAR r
ENCODING 114
SWIDTH 409 0
DWIDTH 7 0
BBX 5 9 2 0
BITMAP
d8
f8
e0
c0
c0
c0
c0
c0
c0
ENDCHAR
STARTCHAR s
ENCODING 115
SWIDTH 510 0
DWIDTH 9 0
BBX 6 9 1 0
BITMAP
78
f8
c0
f0
78
1c
8c
fc
78
ENDCHAR
STARTCHAR t
ENCODING 116
SWIDTH 374 0
DWIDTH 6 0
BBX 5 11 1 0
BITMAP
60
60
f8
f8
60
60
60
60
60
78
38
ENDCHAR
STARTCHAR u
ENCODING 117
SWIDTH 620 0
DWIDTH 11 0
BBX 7 9 2 0
BITMAP
c6
c6
c6
c6
c6
c6
ce
f6
76
ENDCHAR
STARTCHAR v
ENCODING 118
SWIDTH 572 0
DWIDTH 9 0
BBX 9 9 0 0
BITMAP
c180
c380
6300
6300
3600
3600
3e00
1c00
1c00
ENDCHAR
STARTCHAR w
ENCODING 119
SWIDTH 840 0
DWIDTH 13 0
BBX 13 9 0 0
BITMAP
c718
c718
e730
6db0
6db0
6de0
39e0
38e0
38c0
ENDCHAR
STARTCHAR x
ENCODING 120
SWIDTH 613 0
DWIDTH 10 0
BBX 9 9 1 0
BITMAP
e380
7300
3600
1e00
1c00
3e00
7600
6300
c380
ENDCHAR
STARTCHAR y
ENCODING 121
SWIDTH 568 0
DWIDTH 9 0
BBX 9 12 0 -3
BITMAP
c180
e380
6300
6300
3600
3600
1e00
1c00
1c00
1800
3800
3000
ENDCHAR
STARTCHAR z
ENCODING 122
SWIDTH 573 0
DWIDTH 10 0
BBX 8 9 1 0
BITMAP
ff
ff
06
0c
18
30
60
ff
ff
ENDCHAR
STARTCHAR braceleft
ENCODING 123
SWIDTH 325 0
DWIDTH 6 0
BBX 5 15 0 -3
BITMAP
18
38
30
30
30
30
30
c0
f0
30
30
30
30
38
18
ENDCHAR
STARTCHAR bar
ENCODING 124
SWIDTH 265 0
DWIDTH 4 0
BBX 2 15 1 -3
BITMAP
c0
c0
c0
c0
c0
c0
c0
c0
c0
c0
c0
c0
c0
c0
c0
ENDCHAR
STARTCHAR braceright
ENCODING 125
SWIDTH 325 0
DWIDTH 6 0
BBX 5 15 1 -3
BITMAP
c0
e0
60
60
60
60
78
18
60
60
60
60
60
e0
c0
ENDCHAR
STARTCHAR asciitilde
ENCODING 126
SWIDTH 633 0
DWIDTH 11 0
BBX 10 4 0 3
BITMAP
70c0
fcc0
cfc0
c380
ENDCHAR
STARTCHAR nobreakspace
ENCODING 160
SWIDTH 316 0
DWIDTH 5 0
BBX 1 1 0 0
BITMAP
00
ENDCHAR
STARTCHAR Aogonek
ENCODING 161
SWIDTH 690 0
DWIDTH 12 0
BBX 11 14 0 -2
BITMAP
0e00
0e00
1e00
1b00
1b00
3380
3180
7f80
7fc0
60c0
c0e0
c060
0c00
0e00
ENDCHAR
STARTCHAR breve
ENCODING 162
SWIDTH 614 0
DWIDTH 10 0
BBX 6 2 2 10
BITMAP
84
78
ENDCHAR
STARTCHAR Lstroke
ENCODING 163
SWIDTH 533 0
DWIDTH 9 0
BBX 10 12 0 0
BITMAP
3000
3000
3000
3400
3c00
7000
f000
3000
3000
3000
3fc0
3fc0
ENDCHAR
STARTCHAR currency
ENCODING 164
SWIDTH 633 0
DWIDTH 11 0
BBX 9 10 1 1
BITMAP
c180
ff80
7f00
7700
6300
6300
7700
7f00
ff80
c180
ENDCHAR
STARTCHAR Lcaron
ENCODING 165
SWIDTH 533 0
DWIDTH 9 0
BBX 8 13 1 0
BITMAP
1c
dc
cc
d8
c0
c0
c0
c0
c0
c0
c0
ff
ff
ENDCHAR
STARTCHAR Sacute
ENCODING 166
SWIDTH 539 0
DWIDTH 9 0
BBX 7 15 1 0
BITMAP
1c
30
00
7c
fc
c4
c0
e0
78
1c
0e
06
8e
fe
78
ENDCHAR
STARTCHAR section
ENCODING 167
SWIDTH 633 0
DWIDTH 11 0
BBX 7 15 2 -3
BITMAP
3e
fe
c0
c0
70
7c
de
c6
f6
7c
1c
06
8e
fe
7c
ENDCHAR
STARTCHAR diaeresis
ENCODING 168
SWIDTH 614 0
DWIDTH 10 0
BBX 5 2 3 10
BITMAP
98
98
ENDCHAR
STARTCHAR Scaron
ENCODING 169
SWIDTH 539 0
DWIDTH 9 0
BBX 7 15 1 0
BITMAP
cc
78
00
7c
fc
c4
c0
e0
78
1c
0e
06
8e
fe
78
ENDCHAR
STARTCHAR Scedilla
ENCODING 170
SWIDTH 539 0
DWIDTH 9 0
BBX 7 15 1 -3
BITMAP
7c
fc
c4
c0
e0
78
1c
0e
06
8e
fe
78
30
18
38
ENDCHAR
STARTCHAR Tcaron
ENCODING 171
SWIDTH 633 0
DWIDTH 11 0
BBX 10 15 0 0
BITMAP
3300
1e00
0000
ffc0
ffc0
0c00
0c00
0c00
0c00
0c00
0c00
0c00
0c00
0c00
0c00
ENDCHAR
STARTCHAR Zacute
ENCODING 172
SWIDTH 605 0
DWIDTH 10 0
BBX 9 15 1 0
BITMAP
0700
0c00
0000
ff80
ff80
0380
0700
0e00
0c00
1800
3800
7000
e000
ff80
ff80
ENDCHAR
STARTCHAR hyphen
ENCODING 173
SWIDTH 325 0
DWIDTH 6 0
BBX 4 2 1 4
BITMAP
f0
f0
ENDCHAR
STARTCHAR Zcaron
ENCODING 174
SWIDTH 605 0
DWIDTH 10 0
BBX 9 15 1 0
BITMAP
3300
1e00
0000
ff80
ff80
0380
0700
0e00
0c00
1800
3800
7000
e000
ff80
ff80
ENDCHAR
STARTCHAR Zabovedot
ENCODING 175
SWIDTH 605 0
DWIDTH 10 0
BBX 9 15 1 0
BITMAP
0c00
0c00
0000
ff80
ff80
0380
0700
0e00
0c00
1800
3800
7000
e000
ff80
ff80
ENDCHAR
STARTCHAR degree
ENCODING 176
SWIDTH 277 0
DWIDTH 5 0
BBX 3 3 1 9
BITMAP
e0
a0
e0
ENDCHAR
STARTCHAR aogonek
ENCODING 177
SWIDTH 552 0
DWIDTH 9 0
BBX 8 11 1 -2
BITMAP
3c
7e
46
3e
7e
c6
c6
ff
73
30
38
ENDCHAR
STARTCHAR ogonek
ENCODING 178
SWIDTH 614 0
DWIDTH 10 0
BBX 3 2 4 -3
BITMAP
c0
e0
ENDCHAR
STARTCHAR lstroke
ENCODING 179
SWIDTH 289 0
DWIDTH 5 0
BBX 6 12 0 0
BITMAP
30
30
30
34
3c
70
f0
30
30
30
30
30
ENDCHAR
STARTCHAR acute
ENCODING 180
SWIDTH 614 0
DWIDTH 10 0
BBX 4 2 4 10
BITMAP
70
c0
ENDCHAR
STARTCHAR lcaron
ENCODING 181
SWIDTH 540 0
DWIDTH 9 0
BBX 6 13 1 0
BITMAP
1c
dc
cc
d8
c0
c0
c0
c0
c0
c0
c0
c0
c0
ENDCHAR
STARTCHAR sacute
ENCODING 182
SWIDTH 510 0
DWIDTH 9 0
BBX 6 12 1 0
BITMAP
1c
30
00
78
f8
c0
f0
78
1c
8c
fc
78
ENDCHAR
STARTCHAR caron
ENCODING 183
SWIDTH 614 0
DWIDTH 10 0
BBX 6 2 2 10
BITMAP
cc
78
ENDCHAR
STARTCHAR cedilla
ENCODING 184
SWIDTH 614 0
DWIDTH 10 0
BBX 3 3 4 -3
BITMAP
c0
60
e0
ENDCHAR
STARTCHAR scaron
ENCODING 185
SWIDTH 510 0
DWIDTH 9 0
BBX 6 12 1 0
BITMAP
cc
78
00
78
f8
c0
f0
78
1c
8c
fc
78
ENDCHAR
STARTCHAR scedilla
ENCODING 186
SWIDTH 510 0
DWIDTH 9 0
BBX 6 12 1 -3
BITMAP
78
f8
c0
f0
78
1c
8c
fc
78
60
30
70
ENDCHAR
STARTCHAR tcaron
ENCODING 187
SWIDTH 480 0
DWIDTH 8 0
BBX 7 14 1 0
BITMAP
0e
0e
06
6c
60
f8
f8
60
60
60
60
60
78
38
ENDCHAR
STARTCHAR zacute
ENCODING 188
SWIDTH 573 0
DWIDTH 10 0
BBX 8 12 1 0
BITMAP
0e
18
00
ff
ff
06
0c
18
30
60
ff
ff
ENDCHAR
STARTCHAR doubleacute
ENCODING 189
SWIDTH 614 0
DWIDTH 10 0
BBX 5 2 3 10
BITMAP
78
e0
ENDCHAR
STARTCHAR zcaron
ENCODING 190
SWIDTH 573 0
DWIDTH 10 0
BBX 8 12 1 0
BITMAP
66
3c
00
ff
ff
06
0c
18
30
60
ff
ff
ENDCHAR
STARTCHAR zabovedot
ENCODING 191
SWIDTH 573 0
DWIDTH 10 0
BBX 8 12 1 0
BITMAP
18
18
00
ff
ff
06
0c
18
30
60
ff
ff
ENDCHAR
STARTCHAR Racute
ENCODING 192
SWIDTH 633 0
DWIDTH 11 0
BBX 9 15 2 0
BITMAP
0e00
1800
0000
fc00
fe00
c600
c600
c600
cc00
f800
f800
cc00
c600
c700
c380
ENDCHAR
STARTCHAR Aacute
ENCODING 193
SWIDTH 690 0
DWIDTH 12 0
BBX 11 15 0 0
BITMAP
0700
0c00
0000
0e00
0e00
1e00
1b00
1b00
3380
3180
7f80
7fc0
60c0
c0e0
c060
ENDCHAR
STARTCHAR Acircumflex
ENCODING 194
SWIDTH 690 0
DWIDTH 12 0
BBX 11 15 0 0
BITMAP
0f00
1980
0000
0e00
0e00
1e00
1b00
1b00
3380
3180
7f80
7fc0
60c0
c0e0
c060
ENDCHAR
STARTCHAR Abreve
ENCODING 195
SWIDTH 690 0
DWIDTH 12 0
BBX 11 15 0 0
BITMAP
1080
0f00
0000
0e00
0e00
1e00
1b00
1b00
3380
3180
7f80
7fc0
60c0
c0e0
c060
ENDCHAR
STARTCHAR Adiaeresis
ENCODING 196
SWIDTH 690 0
DWIDTH 12 0
BBX 11 15 0 0
BITMAP
1300
1300
0000
0e00
0e00
1e00
1b00
1b00
3380
3180
7f80
7fc0
60c0
c0e0
c060
ENDCHAR
STARTCHAR Lacute
ENCODING 197
SWIDTH 533 0
DWIDTH 9 0
BBX 8 15 1 0
BITMAP
70
c0
00
c0
c0
c0
c0
c0
c0
c0
c0
c0
c0
ff
ff
ENDCHAR
STARTCHAR Cacute
ENCODING 198
SWIDTH 692 0
DWIDTH 12 0
BBX 10 15 1 0
BITMAP
0380
0600
0000
1f80
3fc0
7040
e000
c000
c000
c000
c000
e000
7040
3fc0
1f80
ENDCHAR
STARTCHAR Ccedilla
ENCODING 199
SWIDTH 692 0
DWIDTH 12 0
BBX 10 15 1 -3
BITMAP
1f80
3fc0
7040
e000
c000
c000
c000
c000
e000
7040
3fc0
1f80
0400
0600
0e00
ENDCHAR
STARTCHAR Ccaron
ENCODING 200
SWIDTH 692 0
DWIDTH 12 0
BBX 10 15 1 0
BITMAP
1980
0f00
0000
1f80
3fc0
7040
e000
c000
c000
c000
c000
e000
7040
3fc0
1f80
ENDCHAR
STARTCHAR Eacute
ENCODING 201
SWIDTH 542 0
DWIDTH 9 0
BBX 7 15 2 0
BITMAP
38
60
00
fe
fe
c0
c0
c0
fc
fc
c0
c0
c0
fe
fe
ENDCHAR
STARTCHAR Eogonek
ENCODING 202
SWIDTH 542 0
DWIDTH 9 0
BBX 7 14 2 -2
BITMAP
fe
fe
c0
c0
c0
fc
fc
c0
c0
c0
fe
fe
30
38
ENDCHAR
STARTCHAR Ediaeresis
ENCODING 203
SWIDTH 542 0
DWIDTH 9 0
BBX 7 15 2 0
BITMAP
98
98
00
fe
fe
c0
c0
c0
fc
fc
c0
c0
c0
fe
fe
ENDCHAR
STARTCHAR Ecaron
ENCODING 204
SWIDTH 542 0
DWIDTH 9 0
BBX 7 15 2 0
BITMAP
66
3c
00
fe
fe
c0
c0
c0
fc
fc
c0
c0
c0
fe
fe
ENDCHAR
STARTCHAR Iacute
ENCODING 205
SWIDTH 288 0
DWIDTH 5 0
BBX 4 15 2 0
BITMAP
70
c0
00
60
60
60
60
60
60
60
60
60
60
60
60
ENDCHAR
STARTCHAR Icircumflex
ENCODING 206
SWIDTH 288 0
DWIDTH 5 0
BBX 6 15 3 0
BITMAP
78
cc
00
30
30
30
30
30
30
30
30
30
30
30
30
ENDCHAR
STARTCHAR Dcaron
ENCODING 207
SWIDTH 749 0
DWIDTH 13 0
BBX 10 15 2 0
BITMAP
6600
3c00
0000
fe00
ff00
c380
c1c0
c0c0
c0c0
c0c0
c0c0
c0c0
c180
ff00
fe00
ENDCHAR
STARTCHAR Dstroke
ENCODING 208
SWIDTH 749 0
DWIDTH 13 0
BBX 12 12 0 0
BITMAP
3f80
3fc0
30e0
3070
3030
fe30
fe30
3030
3030
3060
3fc0
3f80
ENDCHAR
STARTCHAR Nacute
ENCODING 209
SWIDTH 741 0
DWIDTH 13 0
BBX 9 15 2 0
BITMAP
0700
0c00
0000
c180
e180
f180
f180
f980
d980
cd80
cf80
c780
c780
c380
c180
ENDCHAR
STARTCHAR Ncaron
ENCODING 210
SWIDTH 741 0
DWIDTH 13 0
BBX 9 15 2 0
BITMAP
3300
1e00
0000
c180
e180
f180
f180
f980
d980
cd80
cf80
c780
c780
c380
c180
ENDCHAR
STARTCHAR Oacute
ENCODING 211
SWIDTH 777 0
DWIDTH 13 0
BBX 11 15 1 0
BITMAP
0700
0c00
0000
1f00
3f80
71c0
e0e0
c060
c060
c060
c060
e0e0
71c0
3f80
1f00
ENDCHAR
STARTCHAR Ocircumflex
ENCODING 212
SWIDTH 777 0
DWIDTH 13 0
BBX 11 15 1 0
BITMAP
0f00
1980
0000
1f00
3f80
71c0
e0e0
c060
c060
c060
c060
e0e0
71c0
3f80
1f00
ENDCHAR
STARTCHAR Odoubleacute
ENCODING 213
SWIDTH 777 0
DWIDTH 13 0
BBX 11 15 1 0
BITMAP
0780
0e00
0000
1f00
3f80
71c0
e0e0
c060
c060
c060
c060
e0e0
71c0
3f80
1f00
ENDCHAR
STARTCHAR Odiaeresis
ENCODING 214
SWIDTH 777 0
DWIDTH 13 0
BBX 11 15 1 0
BITMAP
1300
1300
0000
1f00
3f80
71c0
e0e0
c060
c060
c060
c060
e0e0
71c0
3f80
1f00
ENDCHAR
STARTCHAR multiply
ENCODING 215
SWIDTH 633 0
DWIDTH 11 0
BBX 10 10 0 0
BITMAP
c0c0
e1c0
7380
3f00
1e00
1e00
3f00
7380
e1c0
c0c0
ENDCHAR
STARTCHAR Rcaron
ENCODING 216
SWIDTH 633 0
DWIDTH 11 0
BBX 9 15 2 0
BITMAP
6600
3c00
0000
fc00
fe00
c600
c600
c600
cc00
f800
f800
cc00
c600
c700
c380
ENDCHAR
STARTCHAR Uring
ENCODING 217
SWIDTH 693 0
DWIDTH 12 0
BBX 9 16 1 0
BITMAP
1c00
1400
1c00
0000
c180
c180
c180
c180
c180
c180
c180
c180
c180
e380
7f00
3e00
ENDCHAR
STARTCHAR Uacute
ENCODING 218
SWIDTH 693 0
DWIDTH 12 0
BBX 9 15 1 0
BITMAP
0e00
1800
0000
c180
c180
c180
c180
c180
c180
c180
c180
c180
e380
7f00
3e00
ENDCHAR
STARTCHAR Udoubleacute
ENCODING 219
SWIDTH 693 0
DWIDTH 12 0
BBX 9 15 1 0
BITMAP
0f00
1c00
0000
c180
c180
c180
c180
c180
c180
c180
c180
c180
e380
7f00
3e00
ENDCHAR
STARTCHAR Udiaeresis
ENCODING 220
SWIDTH 693 0
DWIDTH 12 0
BBX 9 15 1 0
BITMAP
2600
2600
0000
c180
c180
c180
c180
c180
c180
c180
c180
c180
e380
7f00
3e00
ENDCHAR
STARTCHAR Yacute
ENCODING 221
SWIDTH 623 0
DWIDTH 11 0
BBX 10 15 0 0
BITMAP
0e00
1800
0000
c0c0
6180
7180
3300
3f00
1e00
0e00
0c00
0c00
0c00
0c00
0c00
ENDCHAR
STARTCHAR Tcedilla
ENCODING 222
SWIDTH 633 0
DWIDTH 11 0
BBX 10 15 0 -3
BITMAP
ffc0
ffc0
0c00
0c00
0c00
0c00
0c00
0c00
0c00
0c00
0c00
0c00
1800
0c00
1c00
ENDCHAR
STARTCHAR ssharp
ENCODING 223
SWIDTH 598 0
DWIDTH 10 0
BBX 8 13 2 0
BITMAP
78
fc
cc
cc
dc
d8
dc
ce
c6
c3
d3
df
ce
ENDCHAR
STARTCHAR racute
ENCODING 224
SWIDTH 409 0
DWIDTH 7 0
BBX 6 12 2 0
BITMAP
1c
30
00
d8
f8
e0
c0
c0
c0
c0
c0
c0
ENDCHAR
STARTCHAR aacute
ENCODING 225
SWIDTH 552 0
DWIDTH 9 0
BBX 8 12 1 0
BITMAP
1c
30
00
3c
7e
46
3e
7e
c6
c6
ff
73
ENDCHAR
STARTCHAR acircumflex
ENCODING 226
SWIDTH 552 0
DWIDTH 9 0
BBX 8 12 1 0
BITMAP
3c
66
00
3c
7e
46
3e
7e
c6
c6
ff
73
ENDCHAR
STARTCHAR abreve
ENCODING 227
SWIDTH 552 0
DWIDTH 9 0
BBX 8 12 1 0
BITMAP
42
3c
00
3c
7e
46
3e
7e
c6
c6
ff
73
ENDCHAR
STARTCHAR adiaeresis
ENCODING 228
SWIDTH 552 0
DWIDTH 9 0
BBX 8 12 1 0
BITMAP
4c
4c
00
3c
7e
46
3e
7e
c6
c6
ff
73
ENDCHAR
STARTCHAR lacute
ENCODING 229
SWIDTH 289 0
DWIDTH 5 0
BBX 4 15 1 0
BITMAP
70
c0
00
c0
c0
c0
c0
c0
c0
c0
c0
c0
c0
c0
c0
ENDCHAR
STARTCHAR cacute
ENCODING 230
SWIDTH 518 0
DWIDTH 9 0
BBX 7 12 1 0
BITMAP
0e
18
00
3e
7e
e0
c0
c0
c0
e2
7e
3c
ENDCHAR
STARTCHAR ccedilla
ENCODING 231
SWIDTH 518 0
DWIDTH 9 0
BBX 7 12 1 -3
BITMAP
3e
7e
e0
c0
c0
c0
e2
7e
3c
10
18
38
ENDCHAR
STARTCHAR ccaron
ENCODING 232
SWIDTH 518 0
DWIDTH 9 0
BBX 7 12 1 0
BITMAP
66
3c
00
3e
7e
e0
c0
c0
c0
e2
7e
3c
ENDCHAR
STARTCHAR eacute
ENCODING 233
SWIDTH 557 0
DWIDTH 9 0
BBX 8 12 1 0
BITMAP
0e
18
00
3c
7e
c3
ff
ff
c0
e1
7f
3e
ENDCHAR
STARTCHAR eogonek
ENCODING 234
SWIDTH 557 0
DWIDTH 9 0
BBX 8 11 1 -2
BITMAP
3c
7e
c3
ff
ff
c0
e1
7f
3e
30
38
ENDCHAR
STARTCHAR ediaeresis
ENCODING 235
SWIDTH 557 0
DWIDTH 9 0
BBX 8 12 1 0
BITMAP
26
26
00
3c
7e
c3
ff
ff
c0
e1
7f
3e
ENDCHAR
STARTCHAR ecaron
ENCODING 236
SWIDTH 557 0
DWIDTH 9 0
BBX 8 12 1 0
BITMAP
66
3c
00
3c
7e
c3
ff
ff
c0
e1
7f
3e
ENDCHAR
STARTCHAR iacute
ENCODING 237
SWIDTH 289 0
DWIDTH 5 0
BBX 4 12 2 0
BITMAP
70
c0
00
60
60
60
60
60
60
60
60
60
ENDCHAR
STARTCHAR icircumflex
ENCODING 238
SWIDTH 289 0
DWIDTH 5 0
BBX 6 12 3 0
BITMAP
78
cc
00
30
30
30
30
30
30
30
30
30
ENDCHAR
STARTCHAR dcaron
ENCODING 239
SWIDTH 900 0
DWIDTH 15 0
BBX 12 13 1 0
BITMAP
0070
0370
0330
0360
3b00
7f00
e300
c300
c300
c300
e700
7f00
3b00
ENDCHAR
STARTCHAR dstroke
ENCODING 240
SWIDTH 840 0
DWIDTH 14 0
BBX 11 12 1 0
BITMAP
0300
1fe0
0300
3b00
7f00
e300
c300
c300
c300
e700
7f00
3b00
ENDCHAR
STARTCHAR nacute
ENCODING 241
SWIDTH 620 0
DWIDTH 11 0
BBX 7 12 2 0
BITMAP
0e
18
00
dc
de
e6
c6
c6
c6
c6
c6
c6
ENDCHAR
STARTCHAR ncaron
ENCODING 242
SWIDTH 620 0
DWIDTH 11 0
BBX 7 12 2 0
BITMAP
66
3c
00
dc
de
e6
c6
c6
c6
c6
c6
c6
ENDCHAR
STARTCHAR oacute
ENCODING 243
SWIDTH 614 0
DWIDTH 10 0
BBX 9 12 1 0
BITMAP
0e00
1800
0000
3e00
7f00
e380
c180
c180
c180
e380
7f00
3e00
ENDCHAR
STARTCHAR ocircumflex
ENCODING 244
SWIDTH 614 0
DWIDTH 10 0
BBX 9 12 1 0
BITMAP
1e00
3300
0000
3e00
7f00
e380
c180
c180
c180
e380
7f00
3e00
ENDCHAR
STARTCHAR odoubleacute
ENCODING 245
SWIDTH 614 0
DWIDTH 10 0
BBX 9 12 1 0
BITMAP
0f00
1c00
0000
3e00
7f00
e380
c180
c180
c180
e380
7f00
3e00
ENDCHAR
STARTCHAR odiaeresis
ENCODING 246
SWIDTH 614 0
DWIDTH 10 0
BBX 9 12 1 0
BITMAP
2600
2600
0000
3e00
7f00
e380
c180
c180
c180
e380
7f00
3e00
ENDCHAR
STARTCHAR division
ENCODING 247
SWIDTH 633 0
DWIDTH 11 0
BBX 10 9 0 0
BITMAP
0c00
0c00
0000
ffc0
ffc0
0000
0000
0c00
0c00
ENDCHAR
STARTCHAR rcaron
ENCODING 248
SWIDTH 409 0
DWIDTH 7 0
BBX 6 12 2 0
BITMAP
cc
78
00
d8
f8
e0
c0
c0
c0
c0
c0
c0
ENDCHAR
STARTCHAR uring
ENCODING 249
SWIDTH 620 0
DWIDTH 11 0
BBX 7 13 2 0
BITMAP
38
28
38
00
c6
c6
c6
c6
c6
c6
ce
f6
76
ENDCHAR
STARTCHAR uacute
ENCODING 250
SWIDTH 620 0
DWIDTH 11 0
BBX 7 12 2 0
BITMAP
1c
30
00
c6
c6
c6
c6
c6
c6
ce
f6
76
ENDCHAR
STARTCHAR udoubleacute
ENCODING 251
SWIDTH 620 0
DWIDTH 11 0
BBX 7 12 2 0
BITMAP
1e
38
00
c6
c6
c6
c6
c6
c6
ce
f6
76
ENDCHAR
STARTCHAR udiaeresis
ENCODING 252
SWIDTH 620 0
DWIDTH 11 0
BBX 7 12 2 0
BITMAP
4c
4c
00
c6
c6
c6
c6
c6
c6
ce
f6
76
ENDCHAR
STARTCHAR yacute
ENCODING 253
SWIDTH 568 0
DWIDTH 9 0
BBX 9 15 0 -3
BITMAP
0e00
1800
0000
c180
e380
6300
6300
3600
3600
1e00
1c00
1c00
1800
3800
3000
ENDCHAR
STARTCHAR tcedilla
ENCODING 254
SWIDTH 374 0
DWIDTH 6 0
BBX 5 14 1 -3
BITMAP
60
60
f8
f8
60
60
60
60
60
78
38
60
30
70
ENDCHAR
STARTCHAR abovedot
ENCODING 255
SWIDTH 614 0
DWIDTH 10 0
BBX 2 2 4 10
BITMAP
c0
c0
ENDCHAR
ENDFONT
